<svg width="15" height="15" viewBox="0 0 15 15" fill="none" xmlns="http://www.w3.org/2000/svg">
<path d="M7.5 0.5C7.5 0.5 5 4.52586 5 7.5C5 10.4741 7.5 14.5 7.5 14.5M7.5 0.5C7.5 0.5 10 4.52586 10 7.5C10 10.4741 7.5 14.5 7.5 14.5M7.5 0.5C4.39042 0.5 1.75441 2.5276 0.841937 5.33282M7.5 0.5C10.6096 0.5 13.2456 2.5276 14.1581 5.33282M7.5 14.5C4.39042 14.5 1.75441 12.4724 0.841937 9.66718M7.5 14.5C10.6096 14.5 13.2456 12.4724 14.1581 9.66718M0.841937 5.33282C0.619976 6.0152 0.5 6.74359 0.5 7.5C0.5 8.25641 0.619976 8.9848 0.841937 9.66718M0.841937 5.33282H14.1581M14.1581 5.33282C14.38 6.0152 14.5 6.74359 14.5 7.5C14.5 8.25641 14.38 8.9848 14.1581 9.66718M0.841937 9.66718H14.1581" stroke="white"/>
</svg>
